<?xml version="1.0" encoding="UTF-8" standalone="no"?>
<svg
   width="1029.1328"
   zoomAndPan="magnify"
   viewBox="0 0 771.84961 92.272235"
   height="123.02965"
   preserveAspectRatio="xMidYMid"
   version="1.0"
   id="svg122"
   sodipodi:docname="LogoBingoClaro.svg"
   inkscape:version="1.3 (0e150ed6c4, 2023-07-21)"
   xmlns:inkscape="http://www.inkscape.org/namespaces/inkscape"
   xmlns:sodipodi="http://sodipodi.sourceforge.net/DTD/sodipodi-0.dtd"
   xmlns="http://www.w3.org/2000/svg"
   xmlns:svg="http://www.w3.org/2000/svg">
  <sodipodi:namedview
     id="namedview122"
     pagecolor="#505050"
     bordercolor="#ffffff"
     borderopacity="1"
     inkscape:showpageshadow="0"
     inkscape:pageopacity="0"
     inkscape:pagecheckerboard="1"
     inkscape:deskcolor="#d1d1d1"
     inkscape:zoom="1.0239583"
     inkscape:cx="482.92984"
     inkscape:cy="-89.847413"
     inkscape:window-width="1920"
     inkscape:window-height="934"
     inkscape:window-x="0"
     inkscape:window-y="44"
     inkscape:window-maximized="1"
     inkscape:current-layer="svg122" />
  <defs
     id="defs13">
    <g
       id="g1" />
    <clipPath
       id="82117aec59">
      <path
         d="m 29.300781,18.253906 h 29.882813 v 50.6875 H 29.300781 Z m 0,0"
         clip-rule="nonzero"
         id="path1" />
    </clipPath>
    <clipPath
       id="a90a65e45d">
      <path
         d="m 44.242188,18.253906 c -8.25,0 -14.941407,11.347656 -14.941407,25.34375 0,13.996094 6.691407,25.34375 14.941407,25.34375 8.253906,0 14.941406,-11.347656 14.941406,-25.34375 0,-13.996094 -6.6875,-25.34375 -14.941406,-25.34375 z m 0,0"
         clip-rule="nonzero"
         id="path2" />
    </clipPath>
    <clipPath
       id="73e0438ef2">
      <path
         d="m 218.28906,17.261719 h 46.19141 v 56.859375 h -46.19141 z m 0,0"
         clip-rule="nonzero"
         id="path3" />
    </clipPath>
    <clipPath
       id="9cc69bd5ec">
      <path
         d="m 241.38281,17.261719 c -12.7539,0 -23.09375,12.730469 -23.09375,28.429687 0,15.699219 10.33985,28.429688 23.09375,28.429688 12.75781,0 23.09766,-12.730469 23.09766,-28.429688 0,-15.699218 -10.33985,-28.429687 -23.09766,-28.429687 z m 0,0"
         clip-rule="nonzero"
         id="path4" />
    </clipPath>
    <clipPath
       id="ffda3f85d7">
      <path
         d="m 353.09766,18.570312 h 44.0625 V 72.8125 h -44.0625 z m 0,0"
         clip-rule="nonzero"
         id="path5" />
    </clipPath>
    <clipPath
       id="ccaca6f919">
      <path
         d="m 375.12891,18.570312 c -12.16797,0 -22.03125,12.144532 -22.03125,27.121094 0,14.976563 9.86328,27.121094 22.03125,27.121094 12.16796,0 22.03125,-12.144531 22.03125,-27.121094 0,-14.976562 -9.86329,-27.121094 -22.03125,-27.121094 z m 0,0"
         clip-rule="nonzero"
         id="path6" />
    </clipPath>
    <clipPath
       id="16d8afcea9">
      <path
         d="m 503.08984,32.132812 h 22.03125 V 59.25 h -22.03125 z m 0,0"
         clip-rule="nonzero"
         id="path7" />
    </clipPath>
    <clipPath
       id="caedb3df10">
      <path
         d="m 514.10547,32.132812 c -6.08203,0 -11.01563,6.070313 -11.01563,13.558594 0,7.488282 4.9336,13.558594 11.01563,13.558594 6.08594,0 11.01562,-6.070312 11.01562,-13.558594 0,-7.488281 -4.92968,-13.558594 -11.01562,-13.558594 z m 0,0"
         clip-rule="nonzero"
         id="path8" />
    </clipPath>
    <clipPath
       id="af3caf82b8">
      <path
         d="m 603.14062,24.910156 h 25.07813 V 66.375 h -25.07813 z m 0,0"
         clip-rule="nonzero"
         id="path9" />
    </clipPath>
    <clipPath
       id="92e077238a">
      <path
         d="m 615.67969,24.910156 c -6.92578,0 -12.53907,9.285156 -12.53907,20.734375 0,11.449219 5.61329,20.730469 12.53907,20.730469 6.92578,0 12.53906,-9.28125 12.53906,-20.730469 0,-11.449219 -5.61328,-20.734375 -12.53906,-20.734375 z m 0,0"
         clip-rule="nonzero"
         id="path10" />
    </clipPath>
    <clipPath
       id="eff6bc44ec">
      <path
         d="m 658,31 h 24 v 17 h -24 z m 0,0"
         clip-rule="nonzero"
         id="path11" />
    </clipPath>
    <clipPath
       id="698de15e9e">
      <path
         d="m 655.83594,38.105469 23.23828,-9.429688 5.09765,12.5625 -23.23828,9.433594 z m 0,0"
         clip-rule="nonzero"
         id="path12" />
    </clipPath>
    <clipPath
       id="dac332da09">
      <path
         d="m 667.45312,33.390625 c -6.41406,2.605469 -10.47656,7.527344 -9.0664,10.996094 1.40625,3.472656 7.75,4.171875 14.16797,1.566406 6.41797,-2.601563 10.47656,-7.527344 9.0664,-10.996094 -1.40625,-3.46875 -7.75,-4.171875 -14.16797,-1.566406 z m 0,0"
         clip-rule="nonzero"
         id="path13" />
    </clipPath>
  </defs>
  <g
     clip-path="url(#82117aec59)"
     id="g15"
     transform="translate(-20.962502,0.14056644)">
    <g
       clip-path="url(#a90a65e45d)"
       id="g14">
      <path
         fill="#e46598"
         d="m 29.300781,18.253906 h 29.882813 v 50.6875 H 29.300781 Z m 0,0"
         fill-opacity="1"
         fill-rule="nonzero"
         id="path14"
         style="fill:#f6909d;fill-opacity:1" />
    </g>
  </g>
  <g
     clip-path="url(#73e0438ef2)"
     id="g17"
     transform="translate(-20.962502,0.14056644)">
    <g
       clip-path="url(#9cc69bd5ec)"
       id="g16">
      <path
         fill="#e46598"
         d="m 218.28906,17.261719 h 46.19141 v 56.859375 h -46.19141 z m 0,0"
         fill-opacity="1"
         fill-rule="nonzero"
         id="path15"
         style="fill:#f6909d;fill-opacity:1" />
    </g>
  </g>
  <g
     clip-path="url(#ffda3f85d7)"
     id="g19"
     transform="translate(-20.962502,0.14056644)">
    <g
       clip-path="url(#ccaca6f919)"
       id="g18">
      <path
         fill="#e46598"
         d="m 353.09766,18.570312 h 44.0625 V 72.8125 h -44.0625 z m 0,0"
         fill-opacity="1"
         fill-rule="nonzero"
         id="path17"
         style="fill:#f6909d;fill-opacity:1" />
    </g>
  </g>
  <g
     clip-path="url(#16d8afcea9)"
     id="g21"
     transform="translate(-20.962502,0.14056644)">
    <g
       clip-path="url(#caedb3df10)"
       id="g20">
      <path
         fill="#e46598"
         d="m 503.08984,32.132812 h 22.03125 V 59.25 h -22.03125 z m 0,0"
         fill-opacity="1"
         fill-rule="nonzero"
         id="path19"
         style="fill:#f6909d;fill-opacity:1" />
    </g>
  </g>
  <g
     clip-path="url(#af3caf82b8)"
     id="g23"
     transform="translate(-20.962502,0.14056644)">
    <g
       clip-path="url(#92e077238a)"
       id="g22">
      <path
         fill="#e46598"
         d="m 603.14062,24.910156 h 25.07813 V 66.375 h -25.07813 z m 0,0"
         fill-opacity="1"
         fill-rule="nonzero"
         id="path21"
         style="fill:#f6909d;fill-opacity:1" />
    </g>
  </g>
  <g
     clip-path="url(#eff6bc44ec)"
     id="g26"
     transform="translate(-20.962502,0.14056644)"
     style="mix-blend-mode:normal;fill:#f6909d;fill-opacity:1">
    <g
       clip-path="url(#698de15e9e)"
       id="g25"
       style="fill:#f6909d;fill-opacity:1">
      <g
         clip-path="url(#dac332da09)"
         id="g24"
         style="fill:#f6909d;fill-opacity:1">
        <path
           fill="#e46598"
           d="m 655.83594,38.105469 23.23828,-9.429688 5.09765,12.5625 -23.23828,9.433594 z m 0,0"
           fill-opacity="1"
           fill-rule="nonzero"
           id="path23"
           style="fill:#f6909d;fill-opacity:1" />
      </g>
    </g>
  </g>
  <g
     fill="#244c5a"
     fill-opacity="0.5294"
     id="g29"
     transform="translate(-20.962502,0.14056644)"
     style="fill:#3eb1c8;fill-opacity:0.52941179">
    <g
       transform="translate(20.463668,83.554494)"
       id="g28"
       style="fill:#3eb1c8;fill-opacity:0.52941179">
      <g
         id="g27"
         style="fill:#3eb1c8;fill-opacity:0.52941179">
        <path
           d="m 53.722656,-47.859375 c -3.148437,-14.699219 -24.5,-20.125 -36.75,-15.574219 -0.261718,0.08594 -0.4375,0.171875 -0.609375,0.261719 -2.976562,-0.261719 -6.738281,1.574219 -7.175781,4.722656 -1.664062,12.6875 -4.460938,25.8125 -4.8125,38.585938 C 4.023438,-8.136719 13.824219,-2.273438 24.675781,-3.5 34.910156,-4.726562 45.671875,-12.863281 45.5,-23.972656 45.410156,-26.949219 44.625,-29.488281 43.3125,-31.5 c 6.910156,-3.324219 12.074219,-8.574219 10.410156,-16.359375 z m -22.3125,-3.5 c 1.402344,0.4375 9.539063,3.234375 9.277344,5.6875 -0.08984,1.3125 -5.777344,3.324219 -7.265625,3.847656 -3.585937,1.3125 -7.171875,1.839844 -10.933594,1.925781 -0.4375,0 -0.964843,0 -1.402343,0 -0.4375,0 -0.785157,0 -1.222657,0.08594 0.523438,-3.761719 1.046875,-7.523438 1.484375,-11.285156 3.414063,-1.136719 6.5625,-1.226563 10.0625,-0.261719 z m -0.875,31.234375 c -2.097656,2.363281 -9.710937,5.949219 -12.597656,2.976562 -1.136719,-1.136718 -0.351562,-4.113281 -0.175781,-5.6875 0.08594,-1.574218 0.351562,-3.0625 0.523437,-4.550781 0.789063,0.351563 1.75,0.523438 2.800782,0.613281 0.4375,0 0.875,0 1.3125,0 4.726562,0 13.476562,0.785157 8.136718,6.648438 z m 0,0"
           id="path26"
           style="fill:#3eb1c8;fill-opacity:0.52941179" />
      </g>
    </g>
  </g>
  <g
     fill="#244c5a"
     fill-opacity="0.5294"
     id="g32"
     transform="translate(-20.962502,0.14056644)"
     style="fill:#3eb1c8;fill-opacity:0.52941179">
    <g
       transform="translate(78.910466,83.554494)"
       id="g31"
       style="fill:#3eb1c8;fill-opacity:0.52941179">
      <g
         id="g30"
         style="fill:#3eb1c8;fill-opacity:0.52941179">
        <path
           d="m 8.3125,-53.8125 c -1.75,15.75 -3.0625,31.589844 -3.9375,47.511719 -0.523438,8.402343 12.597656,8.402343 13.125,0 0.875,-15.921875 2.1875,-31.761719 3.9375,-47.511719 0.875,-8.398438 -12.25,-8.308594 -13.125,0 z m 0,0"
           id="path29"
           style="fill:#3eb1c8;fill-opacity:0.52941179" />
      </g>
    </g>
  </g>
  <g
     fill="#244c5a"
     fill-opacity="0.5294"
     id="g35"
     transform="translate(-20.962502,0.14056644)"
     style="fill:#3eb1c8;fill-opacity:0.52941179">
    <g
       transform="translate(104.80904,83.554494)"
       id="g34"
       style="fill:#3eb1c8;fill-opacity:0.52941179">
      <g
         id="g33"
         style="fill:#3eb1c8;fill-opacity:0.52941179">
        <path
           d="m 38.5,-52.9375 c -1.402344,9.453125 -3.0625,18.8125 -4.8125,28.175781 l -7.789062,-17.761719 c -2.273438,-5.425781 -10.585938,-3.5 -11.988282,1.574219 -3.671875,13.648438 -6.824218,27.386719 -9.449218,41.300781 -1.574219,8.222657 11.113281,11.808594 12.6875,3.5 1.402343,-7.703124 3.0625,-15.3125 4.8125,-22.925781 C 24.761719,-12.6875 27.472656,-6.300781 30.273438,0 32.550781,5.25 41.125,3.675781 42.261719,-1.488281 c 3.5,-15.921875 6.472656,-31.847657 8.835937,-47.949219 1.226563,-8.308594 -11.460937,-11.808594 -12.597656,-3.5 z m 0,0"
           id="path32"
           style="fill:#3eb1c8;fill-opacity:0.52941179" />
      </g>
    </g>
  </g>
  <g
     fill="#244c5a"
     fill-opacity="0.5294"
     id="g38"
     transform="translate(-20.962502,0.14056644)"
     style="fill:#3eb1c8;fill-opacity:0.52941179">
    <g
       transform="translate(160.456,83.554494)"
       id="g37"
       style="fill:#3eb1c8;fill-opacity:0.52941179">
      <g
         id="g36"
         style="fill:#3eb1c8;fill-opacity:0.52941179">
        <path
           d="m 39.722656,-36.398438 c -6.386718,0.08594 -18.636718,0.699219 -15.046875,10.761719 1.921875,5.511719 8.660157,5.511719 11.636719,2.363281 0.4375,0 0.875,0 1.222656,0 0.175782,0 0.351563,0 0.4375,0 -0.08594,0.613282 -0.08594,1.222657 -0.261718,1.488282 -0.4375,1.222656 -1.136719,2.273437 -2.011719,3.148437 -4.289063,4.375 -14.613281,1.925781 -17.238281,-3.5 -5.511719,-11.460937 7.875,-33.949219 21.613281,-29.136719 7.960937,2.800782 11.460937,-9.886718 3.5,-12.6875 -31.675781,-11.023437 -57.398438,49.261719 -22.664063,59.148438 7.175782,2.011719 14.964844,2.273438 21.175782,-2.101562 5.6875,-4.023438 9.1875,-10.847657 9.539062,-17.761719 0.261719,-8.046875 -4.113281,-11.898438 -11.902344,-11.722657 z m 0,0"
           id="path35"
           style="fill:#3eb1c8;fill-opacity:0.52941179" />
      </g>
    </g>
  </g>
  <g
     fill="#244c5a"
     fill-opacity="0.5294"
     id="g41"
     transform="translate(-20.962502,0.14056644)"
     style="fill:#3eb1c8;fill-opacity:0.52941179">
    <g
       transform="translate(216.45293,83.554494)"
       id="g40"
       style="fill:#3eb1c8;fill-opacity:0.52941179">
      <g
         id="g39"
         style="fill:#3eb1c8;fill-opacity:0.52941179">
        <path
           d="M 48.648438,-53.375 C 41.472656,-65.183594 22.75,-66.671875 13.386719,-57.136719 c -9.1875,7.875 -10.5,26.164063 -7.875,36.398438 1.839843,7 6.476562,14.351562 13.648437,16.625 7.4375,2.449219 15.664063,-0.261719 21.527344,-5.074219 5.949219,-4.988281 9.625,-12.25 10.847656,-19.863281 1.136719,-7.523438 1.226563,-17.585938 -2.886718,-24.324219 z m -15.925782,34.039062 c -0.261718,0.175782 -0.4375,0.347657 -0.699218,0.613282 -2.800782,2.359375 -7.261719,3.324218 -10.238282,1.046875 -1.921875,-1.398438 -2.796875,-3.761719 -3.410156,-6.035157 -0.875,-3.761718 -1.050781,-7.699218 -0.613281,-11.550781 0.4375,-3.5 1.3125,-7.960937 3.324219,-10.847656 1.839843,-2.539063 4.902343,-4.113281 8.050781,-4.203125 5.425781,-0.08594 8.925781,3.589844 9.535156,8.664062 1.050781,7.699219 -0.08594,16.710938 -5.949219,22.3125 z m 0,0"
           id="path38"
           style="fill:#3eb1c8;fill-opacity:0.52941179" />
      </g>
    </g>
  </g>
  <g
     fill="#244c5a"
     fill-opacity="0.5294"
     id="g44"
     transform="translate(-20.962502,0.14056644)">
    <g
       transform="translate(273.06234,83.554494)"
       id="g43">
      <g
         id="g42" />
    </g>
  </g>
  <g
     fill="#244c5a"
     fill-opacity="0.5294"
     id="g47"
     transform="translate(-20.962502,0.14056644)"
     style="fill:#3eb1c8;fill-opacity:0.52941179">
    <g
       transform="translate(299.66089,83.554494)"
       id="g46"
       style="fill:#3eb1c8;fill-opacity:0.52941179">
      <g
         id="g45"
         style="fill:#3eb1c8;fill-opacity:0.52941179">
        <path
           d="m 38.847656,-21 c -8.574218,2.449219 -23.535156,3.238281 -21.171875,-9.972656 1.574219,-9.011719 9.972657,-16.363282 19.160157,-15.574219 8.398437,0.609375 8.398437,-12.511719 0,-13.125 C 20.125,-60.984375 5.164062,-45.847656 4.375,-29.574219 c -0.4375,8.3125 3.5,16.101563 10.847656,20.210938 8.402344,4.8125 18.289063,3.5 27.125,1.050781 8.136719,-2.273438 4.726563,-14.960938 -3.5,-12.6875 z m 0,0"
           id="path44"
           style="fill:#3eb1c8;fill-opacity:0.52941179" />
      </g>
    </g>
  </g>
  <g
     fill="#244c5a"
     fill-opacity="0.5294"
     id="g50"
     transform="translate(-20.962502,0.14056644)"
     style="fill:#3eb1c8;fill-opacity:0.52941179">
    <g
       transform="translate(351.10808,83.554494)"
       id="g49"
       style="fill:#3eb1c8;fill-opacity:0.52941179">
      <g
         id="g48"
         style="fill:#3eb1c8;fill-opacity:0.52941179">
        <path
           d="M 48.648438,-53.375 C 41.472656,-65.183594 22.75,-66.671875 13.386719,-57.136719 c -9.1875,7.875 -10.5,26.164063 -7.875,36.398438 1.839843,7 6.476562,14.351562 13.648437,16.625 7.4375,2.449219 15.664063,-0.261719 21.527344,-5.074219 5.949219,-4.988281 9.625,-12.25 10.847656,-19.863281 1.136719,-7.523438 1.226563,-17.585938 -2.886718,-24.324219 z m -15.925782,34.039062 c -0.261718,0.175782 -0.4375,0.347657 -0.699218,0.613282 -2.800782,2.359375 -7.261719,3.324218 -10.238282,1.046875 -1.921875,-1.398438 -2.796875,-3.761719 -3.410156,-6.035157 -0.875,-3.761718 -1.050781,-7.699218 -0.613281,-11.550781 0.4375,-3.5 1.3125,-7.960937 3.324219,-10.847656 1.839843,-2.539063 4.902343,-4.113281 8.050781,-4.203125 5.425781,-0.08594 8.925781,3.589844 9.535156,8.664062 1.050781,7.699219 -0.08594,16.710938 -5.949219,22.3125 z m 0,0"
           id="path47"
           style="fill:#3eb1c8;fill-opacity:0.52941179" />
      </g>
    </g>
  </g>
  <g
     fill="#244c5a"
     fill-opacity="0.5294"
     id="g53"
     transform="translate(-20.962502,0.14056644)"
     style="fill:#3eb1c8;fill-opacity:0.52941179">
    <g
       transform="translate(407.71748,83.554494)"
       id="g52"
       style="fill:#3eb1c8;fill-opacity:0.52941179">
      <g
         id="g51"
         style="fill:#3eb1c8;fill-opacity:0.52941179">
        <path
           d="m 38.5,-52.9375 c -1.402344,9.453125 -3.0625,18.8125 -4.8125,28.175781 l -7.789062,-17.761719 c -2.273438,-5.425781 -10.585938,-3.5 -11.988282,1.574219 -3.671875,13.648438 -6.824218,27.386719 -9.449218,41.300781 -1.574219,8.222657 11.113281,11.808594 12.6875,3.5 1.402343,-7.703124 3.0625,-15.3125 4.8125,-22.925781 C 24.761719,-12.6875 27.472656,-6.300781 30.273438,0 32.550781,5.25 41.125,3.675781 42.261719,-1.488281 c 3.5,-15.921875 6.472656,-31.847657 8.835937,-47.949219 1.226563,-8.308594 -11.460937,-11.808594 -12.597656,-3.5 z m 0,0"
           id="path50"
           style="fill:#3eb1c8;fill-opacity:0.52941179" />
      </g>
    </g>
  </g>
  <g
     fill="#244c5a"
     fill-opacity="0.5294"
     id="g56"
     transform="translate(-20.962502,0.14056644)">
    <g
       transform="translate(463.36442,83.554494)"
       id="g55">
      <g
         id="g54" />
    </g>
  </g>
  <g
     fill="#244c5a"
     fill-opacity="0.5294"
     id="g59"
     transform="translate(-20.962502,0.14056644)"
     style="fill:#3eb1c8;fill-opacity:0.52941179">
    <g
       transform="translate(489.96294,83.554494)"
       id="g58"
       style="fill:#3eb1c8;fill-opacity:0.52941179">
      <g
         id="g57"
         style="fill:#3eb1c8;fill-opacity:0.52941179">
        <path
           d="m 45.234375,-38.324219 c -0.261719,-7.613281 -0.4375,-27.5625 -13.386719,-22.046875 -8.398437,3.585938 -14.785156,14.523438 -18.375,22.398438 C 8.75,-27.300781 6.476562,-16.011719 4.460938,-4.636719 c -1.484376,8.3125 11.113281,11.8125 12.601562,3.5 0.785156,-4.375 1.574219,-8.839843 2.535156,-13.210937 l 13.125,0.523437 c 0.175782,3.5 0.261719,7 0.351563,10.410157 0.175781,8.488281 13.300781,8.488281 13.035156,0 -0.261719,-11.636719 -0.4375,-23.273438 -0.875,-34.910157 z m -21.433594,9.539063 c 1.484375,-3.851563 3.410157,-7.699219 5.6875,-11.113282 0.785157,-1.226562 1.660157,-2.363281 2.535157,-3.414062 0.08984,1.75 0,3.5 0.08984,4.988281 0.171875,3.761719 0.261719,7.523438 0.347657,11.375 -3.0625,-0.08594 -6.125,-0.261719 -9.1875,-0.351562 0.175781,-0.523438 0.351562,-0.960938 0.527343,-1.484375 z m 0,0"
           id="path56"
           style="fill:#3eb1c8;fill-opacity:0.52941179" />
      </g>
    </g>
  </g>
  <g
     fill="#244c5a"
     fill-opacity="0.5294"
     id="g62"
     transform="translate(-20.962502,0.14056644)"
     style="fill:#3eb1c8;fill-opacity:0.52941179">
    <g
       transform="translate(540.53518,83.554494)"
       id="g61"
       style="fill:#3eb1c8;fill-opacity:0.52941179">
      <g
         id="g60"
         style="fill:#3eb1c8;fill-opacity:0.52941179">
        <path
           d="m 38.5,-53.109375 c -1.402344,9.449219 -3.0625,18.898437 -4.8125,28.261719 L 25.898438,-42.699219 C 23.625,-48.035156 15.3125,-46.109375 13.910156,-41.125 10.238281,-27.472656 7.085938,-13.648438 4.460938,0.175781 c -1.574219,8.3125 11.113281,11.8125 12.6875,3.5 1.402343,-7.613281 3.0625,-15.226562 4.8125,-22.835937 2.800781,6.386718 5.511718,12.683594 8.3125,19.0742185 C 32.550781,5.164062 41.125,3.585938 42.261719,-1.664062 c 3.5,-15.835938 6.472656,-31.847657 8.835937,-47.945313 1.226563,-8.226563 -11.460937,-11.8125 -12.597656,-3.5 z m 0,0"
           id="path59"
           style="fill:#3eb1c8;fill-opacity:0.52941179" />
      </g>
    </g>
  </g>
  <g
     fill="#244c5a"
     fill-opacity="0.5294"
     id="g65"
     transform="translate(-20.962502,0.14056644)"
     style="fill:#3eb1c8;fill-opacity:0.52941179">
    <g
       transform="translate(596.18212,83.554494)"
       id="g64"
       style="fill:#3eb1c8;fill-opacity:0.52941179">
      <g
         id="g63"
         style="fill:#3eb1c8;fill-opacity:0.52941179">
        <path
           d="m 18.898438,-62.734375 c -0.699219,-0.08984 -1.488282,-0.261719 -2.1875,-0.351563 C 12.511719,-63.785156 7,-63.871094 6.648438,-58.449219 5.511719,-42.609375 4.8125,-26.6875 4.375,-10.761719 c -0.085938,2.800781 2.273438,5.425781 4.988281,5.773438 2.011719,0.261719 4.109375,-0.261719 6.125,-0.960938 7,-2.277343 15.484375,-4.988281 21.171875,-9.886719 5.164063,-4.375 9.011719,-10.414062 9.800782,-17.148437 C 47.421875,-41.125 43.75,-48.824219 37.796875,-54.25 32.375,-59.148438 25.898438,-61.335938 18.898438,-62.734375 Z m 14,30.535156 c -2.449219,6.824219 -8.75,9.363281 -15.222657,11.460938 0.347657,-9.449219 0.875,-18.984375 1.398438,-28.523438 8.136719,1.75 17.238281,7.527344 13.824219,17.0625 z m 0,0"
           id="path62"
           style="fill:#3eb1c8;fill-opacity:0.52941179" />
      </g>
    </g>
  </g>
  <g
     fill="#244c5a"
     fill-opacity="0.5294"
     id="g68"
     transform="translate(-20.962502,0.14056644)"
     style="fill:#3eb1c8;fill-opacity:0.52941179">
    <g
       transform="translate(647.27935,83.554494)"
       id="g67"
       style="fill:#3eb1c8;fill-opacity:0.52941179">
      <g
         id="g66"
         style="fill:#3eb1c8;fill-opacity:0.52941179">
        <path
           d="m 49.699219,-8.3125 c -4.8125,-6.5625 -10.324219,-12.425781 -16.625,-17.5 4.722656,-3.324219 8.660156,-7.960938 10.324219,-12.949219 3.324218,-9.972656 -5.601563,-19.773437 -15.75,-19.335937 -10.761719,0.523437 -17.847657,10.5 -19.773438,20.210937 -2.539062,12.601563 -2.539062,25.988281 -3.5,38.761719 -0.699219,8.398438 12.425781,8.398438 13.125,0 0.523438,-6.914062 1.050781,-13.824219 1.660156,-20.738281 7.4375,4.902343 13.914063,10.9375 19.25,18.199219 4.902344,6.738281 16.363282,0.175781 11.289063,-6.648438 z m -18.726563,-35 c 0.351563,1.402344 -3.585937,4.902344 -4.636718,5.863281 C 24.5,-35.785156 22.75,-34.5625 20.472656,-34.296875 c 0.265625,-1.488281 0.613282,-2.976563 1.226563,-4.375 C 22.3125,-40.335938 29.75,-49.261719 30.972656,-43.3125 Z m 0,0"
           id="path65"
           style="fill:#3eb1c8;fill-opacity:0.52941179" />
      </g>
    </g>
  </g>
  <g
     fill="#244c5a"
     fill-opacity="0.5294"
     id="g71"
     transform="translate(-20.962502,0.14056644)"
     style="fill:#3eb1c8;fill-opacity:0.52941179">
    <g
       transform="translate(702.66383,83.554494)"
       id="g70"
       style="fill:#3eb1c8;fill-opacity:0.52941179">
      <g
         id="g69"
         style="fill:#3eb1c8;fill-opacity:0.52941179">
        <path
           d="m 36.484375,-14.4375 c -6.035156,-0.261719 -12.074219,0 -18.023437,0.527344 0.4375,-3.328125 0.964843,-6.652344 1.402343,-9.976563 2.972657,0 5.949219,0.08594 8.921875,0.4375 3.589844,0.351563 6.5625,-3.324219 6.5625,-6.5625 0,-3.847656 -2.972656,-6.210937 -6.5625,-6.5625 -2.273437,-0.261719 -4.546875,-0.347656 -6.910156,-0.4375 0.523438,-3.410156 1.136719,-6.738281 1.660156,-10.148437 4.464844,0 8.839844,0.175781 13.300782,0.4375 8.398437,0.613281 8.398437,-12.511719 0,-13.125 -6.300782,-0.4375 -12.6875,-0.523438 -18.988282,-0.351563 -2.449218,0.08984 -4.199218,1.3125 -5.25,2.976563 -0.4375,0.699218 -0.785156,1.488281 -0.960937,2.539062 C 8.75,-38.585938 6.386719,-22.488281 4.375,-6.386719 3.761719,-1.664062 9.011719,0.523438 12.6875,-0.0859375 20.5625,-1.3125 28.523438,-1.664062 36.484375,-1.3125 c 8.402344,0.351562 8.402344,-12.773438 0,-13.125 z M 23.886719,-64.046875 c 3.238281,1.488281 7.085937,0.261719 8.136719,-2.277344 l 2.363281,-5.421875 c 1.136719,-2.714844 -0.789063,-5.863281 -3.9375,-7.4375 -3.238281,-1.488281 -7.085938,-0.261718 -8.136719,2.273438 l -2.363281,5.425781 c -1.136719,2.710937 0.789062,5.949219 3.9375,7.4375 z m 0,0"
           id="path68"
           style="fill:#3eb1c8;fill-opacity:0.52941179" />
      </g>
    </g>
  </g>
  <g
     fill="#244c5a"
     fill-opacity="0.5294"
     id="g74"
     transform="translate(-20.962502,0.14056644)"
     style="fill:#3eb1c8;fill-opacity:0.52941179">
    <g
       transform="translate(750.17374,83.554494)"
       id="g73"
       style="fill:#3eb1c8;fill-opacity:0.52941179">
      <g
         id="g72"
         style="fill:#3eb1c8;fill-opacity:0.52941179">
        <path
           d="m 32.550781,-37.886719 c -2.277343,-1.574219 -7.527343,-2.972656 -8.578125,-5.6875 -1.574218,-4.285156 4.289063,-7.347656 7.265625,-8.75 7.609375,-3.585937 0.960938,-14.875 -6.652343,-11.285156 -11.722657,5.511719 -19.859376,21.085937 -8.136719,31.234375 4.113281,3.589844 12.25,4.988281 13.125,11.464844 0.351562,2.710937 -0.960938,5.25 -3.414063,6.296875 C 24.5,-13.910156 18.375,-12.949219 16.972656,-14.875 11.898438,-21.523438 0.523438,-14.96094 5.601562,-8.226562 c 10.324219,13.652343 34.996094,7.875 36.921876,-9.621094 0.875,-8.050782 -3.324219,-15.664063 -9.972657,-20.039063 z m 0,0"
           id="path71"
           style="fill:#3eb1c8;fill-opacity:0.52941179" />
      </g>
    </g>
  </g>
  <g
     fill="#244c5a"
     fill-opacity="1"
     id="g77"
     transform="translate(-20.962502,0.14056644)"
     style="fill:#3eb1c8;fill-opacity:1">
    <g
       transform="translate(16.59668,79.687506)"
       id="g76"
       style="fill:#3eb1c8;fill-opacity:1">
      <g
         id="g75"
         style="fill:#3eb1c8;fill-opacity:1">
        <path
           d="m 53.722656,-47.859375 c -3.148437,-14.699219 -24.5,-20.125 -36.75,-15.574219 -0.261718,0.08594 -0.4375,0.171875 -0.609375,0.261719 -2.976562,-0.261719 -6.738281,1.574219 -7.175781,4.722656 -1.664062,12.6875 -4.460938,25.8125 -4.8125,38.585938 C 4.023438,-8.136719 13.824219,-2.273438 24.675781,-3.5 34.910156,-4.726562 45.671875,-12.863281 45.5,-23.972656 45.410156,-26.949219 44.625,-29.488281 43.3125,-31.5 c 6.910156,-3.324219 12.074219,-8.574219 10.410156,-16.359375 z m -22.3125,-3.5 c 1.402344,0.4375 9.539063,3.234375 9.277344,5.6875 -0.08984,1.3125 -5.777344,3.324219 -7.265625,3.847656 -3.585937,1.3125 -7.171875,1.839844 -10.933594,1.925781 -0.4375,0 -0.964843,0 -1.402343,0 -0.4375,0 -0.785157,0 -1.222657,0.08594 0.523438,-3.761719 1.046875,-7.523438 1.484375,-11.285156 3.414063,-1.136719 6.5625,-1.226563 10.0625,-0.261719 z m -0.875,31.234375 c -2.097656,2.363281 -9.710937,5.949219 -12.597656,2.976562 -1.136719,-1.136718 -0.351562,-4.113281 -0.175781,-5.6875 0.08594,-1.574218 0.351562,-3.0625 0.523437,-4.550781 0.789063,0.351563 1.75,0.523438 2.800782,0.613281 0.4375,0 0.875,0 1.3125,0 4.726562,0 13.476562,0.785157 8.136718,6.648438 z m 0,0"
           id="path74"
           style="fill:#3eb1c8;fill-opacity:1" />
      </g>
    </g>
  </g>
  <g
     fill="#244c5a"
     fill-opacity="1"
     id="g80"
     transform="translate(-20.962502,0.14056644)"
     style="fill:#3eb1c8;fill-opacity:1">
    <g
       transform="translate(75.043478,79.687506)"
       id="g79"
       style="fill:#3eb1c8;fill-opacity:1">
      <g
         id="g78"
         style="fill:#3eb1c8;fill-opacity:1">
        <path
           d="m 8.3125,-53.8125 c -1.75,15.75 -3.0625,31.589844 -3.9375,47.511719 -0.523438,8.402343 12.597656,8.402343 13.125,0 0.875,-15.921875 2.1875,-31.761719 3.9375,-47.511719 0.875,-8.398438 -12.25,-8.308594 -13.125,0 z m 0,0"
           id="path77"
           style="fill:#3eb1c8;fill-opacity:1" />
      </g>
    </g>
  </g>
  <g
     fill="#244c5a"
     fill-opacity="1"
     id="g83"
     transform="translate(-20.962502,0.14056644)"
     style="fill:#3eb1c8;fill-opacity:1">
    <g
       transform="translate(100.94205,79.687506)"
       id="g82"
       style="fill:#3eb1c8;fill-opacity:1">
      <g
         id="g81"
         style="fill:#3eb1c8;fill-opacity:1">
        <path
           d="m 38.5,-52.9375 c -1.402344,9.453125 -3.0625,18.8125 -4.8125,28.175781 l -7.789062,-17.761719 c -2.273438,-5.425781 -10.585938,-3.5 -11.988282,1.574219 -3.671875,13.648438 -6.824218,27.386719 -9.449218,41.300781 -1.574219,8.222657 11.113281,11.808594 12.6875,3.5 1.402343,-7.703124 3.0625,-15.3125 4.8125,-22.925781 C 24.761719,-12.6875 27.472656,-6.300781 30.273438,0 32.550781,5.25 41.125,3.675781 42.261719,-1.488281 c 3.5,-15.921875 6.472656,-31.847657 8.835937,-47.949219 1.226563,-8.308594 -11.460937,-11.808594 -12.597656,-3.5 z m 0,0"
           id="path80"
           style="fill:#3eb1c8;fill-opacity:1" />
      </g>
    </g>
  </g>
  <g
     fill="#244c5a"
     fill-opacity="1"
     id="g86"
     transform="translate(-20.962502,0.14056644)"
     style="fill:#3eb1c8;fill-opacity:1">
    <g
       transform="translate(156.58901,79.687506)"
       id="g85"
       style="fill:#3eb1c8;fill-opacity:1">
      <g
         id="g84"
         style="fill:#3eb1c8;fill-opacity:1">
        <path
           d="m 39.722656,-36.398438 c -6.386718,0.08594 -18.636718,0.699219 -15.046875,10.761719 1.921875,5.511719 8.660157,5.511719 11.636719,2.363281 0.4375,0 0.875,0 1.222656,0 0.175782,0 0.351563,0 0.4375,0 -0.08594,0.613282 -0.08594,1.222657 -0.261718,1.488282 -0.4375,1.222656 -1.136719,2.273437 -2.011719,3.148437 -4.289063,4.375 -14.613281,1.925781 -17.238281,-3.5 -5.511719,-11.460937 7.875,-33.949219 21.613281,-29.136719 7.960937,2.800782 11.460937,-9.886718 3.5,-12.6875 -31.675781,-11.023437 -57.398438,49.261719 -22.664063,59.148438 7.175782,2.011719 14.964844,2.273438 21.175782,-2.101562 5.6875,-4.023438 9.1875,-10.847657 9.539062,-17.761719 0.261719,-8.046875 -4.113281,-11.898438 -11.902344,-11.722657 z m 0,0"
           id="path83"
           style="fill:#3eb1c8;fill-opacity:1" />
      </g>
    </g>
  </g>
  <g
     fill="#244c5a"
     fill-opacity="1"
     id="g89"
     transform="translate(-20.962502,0.14056644)"
     style="fill:#3eb1c8;fill-opacity:1">
    <g
       transform="translate(212.58594,79.687506)"
       id="g88"
       style="fill:#3eb1c8;fill-opacity:1">
      <g
         id="g87"
         style="fill:#3eb1c8;fill-opacity:1">
        <path
           d="M 48.648438,-53.375 C 41.472656,-65.183594 22.75,-66.671875 13.386719,-57.136719 c -9.1875,7.875 -10.5,26.164063 -7.875,36.398438 1.839843,7 6.476562,14.351562 13.648437,16.625 7.4375,2.449219 15.664063,-0.261719 21.527344,-5.074219 5.949219,-4.988281 9.625,-12.25 10.847656,-19.863281 1.136719,-7.523438 1.226563,-17.585938 -2.886718,-24.324219 z m -15.925782,34.039062 c -0.261718,0.175782 -0.4375,0.347657 -0.699218,0.613282 -2.800782,2.359375 -7.261719,3.324218 -10.238282,1.046875 -1.921875,-1.398438 -2.796875,-3.761719 -3.410156,-6.035157 -0.875,-3.761718 -1.050781,-7.699218 -0.613281,-11.550781 0.4375,-3.5 1.3125,-7.960937 3.324219,-10.847656 1.839843,-2.539063 4.902343,-4.113281 8.050781,-4.203125 5.425781,-0.08594 8.925781,3.589844 9.535156,8.664062 1.050781,7.699219 -0.08594,16.710938 -5.949219,22.3125 z m 0,0"
           id="path86"
           style="fill:#3eb1c8;fill-opacity:1" />
      </g>
    </g>
  </g>
  <g
     fill="#244c5a"
     fill-opacity="1"
     id="g92"
     transform="translate(-20.962502,0.14056644)">
    <g
       transform="translate(269.19535,79.687506)"
       id="g91">
      <g
         id="g90" />
    </g>
  </g>
  <g
     fill="#244c5a"
     fill-opacity="1"
     id="g95"
     transform="translate(-20.962502,0.14056644)"
     style="fill:#3eb1c8;fill-opacity:1">
    <g
       transform="translate(295.7939,79.687506)"
       id="g94"
       style="fill:#3eb1c8;fill-opacity:1">
      <g
         id="g93"
         style="fill:#3eb1c8;fill-opacity:1">
        <path
           d="m 38.847656,-21 c -8.574218,2.449219 -23.535156,3.238281 -21.171875,-9.972656 1.574219,-9.011719 9.972657,-16.363282 19.160157,-15.574219 8.398437,0.609375 8.398437,-12.511719 0,-13.125 C 20.125,-60.984375 5.164062,-45.847656 4.375,-29.574219 c -0.4375,8.3125 3.5,16.101563 10.847656,20.210938 8.402344,4.8125 18.289063,3.5 27.125,1.050781 8.136719,-2.273438 4.726563,-14.960938 -3.5,-12.6875 z m 0,0"
           id="path92"
           style="fill:#3eb1c8;fill-opacity:1" />
      </g>
    </g>
  </g>
  <g
     fill="#244c5a"
     fill-opacity="1"
     id="g98"
     transform="translate(-20.962502,0.14056644)"
     style="fill:#3eb1c8;fill-opacity:1">
    <g
       transform="translate(347.2411,79.687506)"
       id="g97"
       style="fill:#3eb1c8;fill-opacity:1">
      <g
         id="g96"
         style="fill:#3eb1c8;fill-opacity:1">
        <path
           d="M 48.648438,-53.375 C 41.472656,-65.183594 22.75,-66.671875 13.386719,-57.136719 c -9.1875,7.875 -10.5,26.164063 -7.875,36.398438 1.839843,7 6.476562,14.351562 13.648437,16.625 7.4375,2.449219 15.664063,-0.261719 21.527344,-5.074219 5.949219,-4.988281 9.625,-12.25 10.847656,-19.863281 1.136719,-7.523438 1.226563,-17.585938 -2.886718,-24.324219 z m -15.925782,34.039062 c -0.261718,0.175782 -0.4375,0.347657 -0.699218,0.613282 -2.800782,2.359375 -7.261719,3.324218 -10.238282,1.046875 -1.921875,-1.398438 -2.796875,-3.761719 -3.410156,-6.035157 -0.875,-3.761718 -1.050781,-7.699218 -0.613281,-11.550781 0.4375,-3.5 1.3125,-7.960937 3.324219,-10.847656 1.839843,-2.539063 4.902343,-4.113281 8.050781,-4.203125 5.425781,-0.08594 8.925781,3.589844 9.535156,8.664062 1.050781,7.699219 -0.08594,16.710938 -5.949219,22.3125 z m 0,0"
           id="path95"
           style="fill:#3eb1c8;fill-opacity:1" />
      </g>
    </g>
  </g>
  <g
     fill="#244c5a"
     fill-opacity="1"
     id="g101"
     transform="translate(-20.962502,0.14056644)"
     style="fill:#3eb1c8;fill-opacity:1">
    <g
       transform="translate(403.85049,79.687506)"
       id="g100"
       style="fill:#3eb1c8;fill-opacity:1">
      <g
         id="g99"
         style="fill:#3eb1c8;fill-opacity:1">
        <path
           d="m 38.5,-52.9375 c -1.402344,9.453125 -3.0625,18.8125 -4.8125,28.175781 l -7.789062,-17.761719 c -2.273438,-5.425781 -10.585938,-3.5 -11.988282,1.574219 -3.671875,13.648438 -6.824218,27.386719 -9.449218,41.300781 -1.574219,8.222657 11.113281,11.808594 12.6875,3.5 1.402343,-7.703124 3.0625,-15.3125 4.8125,-22.925781 C 24.761719,-12.6875 27.472656,-6.300781 30.273438,0 32.550781,5.25 41.125,3.675781 42.261719,-1.488281 c 3.5,-15.921875 6.472656,-31.847657 8.835937,-47.949219 1.226563,-8.308594 -11.460937,-11.808594 -12.597656,-3.5 z m 0,0"
           id="path98"
           style="fill:#3eb1c8;fill-opacity:1" />
      </g>
    </g>
  </g>
  <g
     fill="#244c5a"
     fill-opacity="1"
     id="g104"
     transform="translate(-20.962502,0.14056644)">
    <g
       transform="translate(459.49743,79.687506)"
       id="g103">
      <g
         id="g102" />
    </g>
  </g>
  <g
     fill="#244c5a"
     fill-opacity="1"
     id="g107"
     transform="translate(-20.962502,0.14056644)"
     style="fill:#3eb1c8;fill-opacity:1">
    <g
       transform="translate(486.09596,79.687506)"
       id="g106"
       style="fill:#3eb1c8;fill-opacity:1">
      <g
         id="g105"
         style="fill:#3eb1c8;fill-opacity:1">
        <path
           d="m 45.234375,-38.324219 c -0.261719,-7.613281 -0.4375,-27.5625 -13.386719,-22.046875 -8.398437,3.585938 -14.785156,14.523438 -18.375,22.398438 C 8.75,-27.300781 6.476562,-16.011719 4.460938,-4.636719 c -1.484376,8.3125 11.113281,11.8125 12.601562,3.5 0.785156,-4.375 1.574219,-8.839843 2.535156,-13.210937 l 13.125,0.523437 c 0.175782,3.5 0.261719,7 0.351563,10.410157 0.175781,8.488281 13.300781,8.488281 13.035156,0 -0.261719,-11.636719 -0.4375,-23.273438 -0.875,-34.910157 z m -21.433594,9.539063 c 1.484375,-3.851563 3.410157,-7.699219 5.6875,-11.113282 0.785157,-1.226562 1.660157,-2.363281 2.535157,-3.414062 0.08984,1.75 0,3.5 0.08984,4.988281 0.171875,3.761719 0.261719,7.523438 0.347657,11.375 -3.0625,-0.08594 -6.125,-0.261719 -9.1875,-0.351562 0.175781,-0.523438 0.351562,-0.960938 0.527343,-1.484375 z m 0,0"
           id="path104"
           style="fill:#3eb1c8;fill-opacity:1" />
      </g>
    </g>
  </g>
  <g
     fill="#244c5a"
     fill-opacity="1"
     id="g110"
     transform="translate(-20.962502,0.14056644)"
     style="fill:#3eb1c8;fill-opacity:1">
    <g
       transform="translate(536.66819,79.687506)"
       id="g109"
       style="fill:#3eb1c8;fill-opacity:1">
      <g
         id="g108"
         style="fill:#3eb1c8;fill-opacity:1">
        <path
           d="m 38.5,-53.109375 c -1.402344,9.449219 -3.0625,18.898437 -4.8125,28.261719 L 25.898438,-42.699219 C 23.625,-48.035156 15.3125,-46.109375 13.910156,-41.125 10.238281,-27.472656 7.085938,-13.648438 4.460938,0.175781 c -1.574219,8.3125 11.113281,11.8125 12.6875,3.5 1.402343,-7.613281 3.0625,-15.226562 4.8125,-22.835937 2.800781,6.386718 5.511718,12.683594 8.3125,19.0742185 C 32.550781,5.164062 41.125,3.585938 42.261719,-1.664062 c 3.5,-15.835938 6.472656,-31.847657 8.835937,-47.945313 1.226563,-8.226563 -11.460937,-11.8125 -12.597656,-3.5 z m 0,0"
           id="path107"
           style="fill:#3eb1c8;fill-opacity:1" />
      </g>
    </g>
  </g>
  <g
     fill="#244c5a"
     fill-opacity="1"
     id="g113"
     transform="translate(-20.962502,0.14056644)"
     style="fill:#3eb1c8;fill-opacity:1">
    <g
       transform="translate(592.31513,79.687506)"
       id="g112"
       style="fill:#3eb1c8;fill-opacity:1">
      <g
         id="g111"
         style="fill:#3eb1c8;fill-opacity:1">
        <path
           d="m 18.898438,-62.734375 c -0.699219,-0.08984 -1.488282,-0.261719 -2.1875,-0.351563 C 12.511719,-63.785156 7,-63.871094 6.648438,-58.449219 5.511719,-42.609375 4.8125,-26.6875 4.375,-10.761719 c -0.085938,2.800781 2.273438,5.425781 4.988281,5.773438 2.011719,0.261719 4.109375,-0.261719 6.125,-0.960938 7,-2.277343 15.484375,-4.988281 21.171875,-9.886719 5.164063,-4.375 9.011719,-10.414062 9.800782,-17.148437 C 47.421875,-41.125 43.75,-48.824219 37.796875,-54.25 32.375,-59.148438 25.898438,-61.335938 18.898438,-62.734375 Z m 14,30.535156 c -2.449219,6.824219 -8.75,9.363281 -15.222657,11.460938 0.347657,-9.449219 0.875,-18.984375 1.398438,-28.523438 8.136719,1.75 17.238281,7.527344 13.824219,17.0625 z m 0,0"
           id="path110"
           style="fill:#3eb1c8;fill-opacity:1" />
      </g>
    </g>
  </g>
  <g
     fill="#244c5a"
     fill-opacity="1"
     id="g116"
     transform="translate(-20.962502,0.14056644)"
     style="fill:#3eb1c8;fill-opacity:1">
    <g
       transform="translate(643.41237,79.687506)"
       id="g115"
       style="fill:#3eb1c8;fill-opacity:1">
      <g
         id="g114"
         style="fill:#3eb1c8;fill-opacity:1">
        <path
           d="m 49.699219,-8.3125 c -4.8125,-6.5625 -10.324219,-12.425781 -16.625,-17.5 4.722656,-3.324219 8.660156,-7.960938 10.324219,-12.949219 3.324218,-9.972656 -5.601563,-19.773437 -15.75,-19.335937 -10.761719,0.523437 -17.847657,10.5 -19.773438,20.210937 -2.539062,12.601563 -2.539062,25.988281 -3.5,38.761719 -0.699219,8.398438 12.425781,8.398438 13.125,0 0.523438,-6.914062 1.050781,-13.824219 1.660156,-20.738281 7.4375,4.902343 13.914063,10.9375 19.25,18.199219 4.902344,6.738281 16.363282,0.175781 11.289063,-6.648438 z m -18.726563,-35 c 0.351563,1.402344 -3.585937,4.902344 -4.636718,5.863281 C 24.5,-35.785156 22.75,-34.5625 20.472656,-34.296875 c 0.265625,-1.488281 0.613282,-2.976563 1.226563,-4.375 C 22.3125,-40.335938 29.75,-49.261719 30.972656,-43.3125 Z m 0,0"
           id="path113"
           style="fill:#3eb1c8;fill-opacity:1" />
      </g>
    </g>
  </g>
  <g
     fill="#244c5a"
     fill-opacity="1"
     id="g119"
     transform="translate(-20.962502,0.14056644)"
     style="fill:#3eb1c8;fill-opacity:1">
    <g
       transform="translate(698.79684,79.687506)"
       id="g118"
       style="fill:#3eb1c8;fill-opacity:1">
      <g
         id="g117"
         style="fill:#3eb1c8;fill-opacity:1">
        <path
           d="m 36.484375,-14.4375 c -6.035156,-0.261719 -12.074219,0 -18.023437,0.527344 0.4375,-3.328125 0.964843,-6.652344 1.402343,-9.976563 2.972657,0 5.949219,0.08594 8.921875,0.4375 3.589844,0.351563 6.5625,-3.324219 6.5625,-6.5625 0,-3.847656 -2.972656,-6.210937 -6.5625,-6.5625 -2.273437,-0.261719 -4.546875,-0.347656 -6.910156,-0.4375 0.523438,-3.410156 1.136719,-6.738281 1.660156,-10.148437 4.464844,0 8.839844,0.175781 13.300782,0.4375 8.398437,0.613281 8.398437,-12.511719 0,-13.125 -6.300782,-0.4375 -12.6875,-0.523438 -18.988282,-0.351563 -2.449218,0.08984 -4.199218,1.3125 -5.25,2.976563 -0.4375,0.699218 -0.785156,1.488281 -0.960937,2.539062 C 8.75,-38.585938 6.386719,-22.488281 4.375,-6.386719 3.761719,-1.664062 9.011719,0.523438 12.6875,-0.0859375 20.5625,-1.3125 28.523438,-1.664062 36.484375,-1.3125 c 8.402344,0.351562 8.402344,-12.773438 0,-13.125 z M 23.886719,-64.046875 c 3.238281,1.488281 7.085937,0.261719 8.136719,-2.277344 l 2.363281,-5.421875 c 1.136719,-2.714844 -0.789063,-5.863281 -3.9375,-7.4375 -3.238281,-1.488281 -7.085938,-0.261718 -8.136719,2.273438 l -2.363281,5.425781 c -1.136719,2.710937 0.789062,5.949219 3.9375,7.4375 z m 0,0"
           id="path116"
           style="fill:#3eb1c8;fill-opacity:1" />
      </g>
    </g>
  </g>
  <g
     fill="#244c5a"
     fill-opacity="1"
     id="g122"
     transform="translate(-20.962502,0.14056644)"
     style="fill:#3eb1c8;fill-opacity:1">
    <g
       transform="translate(746.30675,79.687506)"
       id="g121"
       style="fill:#3eb1c8;fill-opacity:1">
      <g
         id="g120"
         style="fill:#3eb1c8;fill-opacity:1">
        <path
           d="m 32.550781,-37.886719 c -2.277343,-1.574219 -7.527343,-2.972656 -8.578125,-5.6875 -1.574218,-4.285156 4.289063,-7.347656 7.265625,-8.75 7.609375,-3.585937 0.960938,-14.875 -6.652343,-11.285156 -11.722657,5.511719 -19.859376,21.085937 -8.136719,31.234375 4.113281,3.589844 12.25,4.988281 13.125,11.464844 0.351562,2.710937 -0.960938,5.25 -3.414063,6.296875 C 24.5,-13.910156 18.375,-12.949219 16.972656,-14.875 11.898438,-21.523438 0.523438,-14.96094 5.601562,-8.226562 c 10.324219,13.652343 34.996094,7.875 36.921876,-9.621094 0.875,-8.050782 -3.324219,-15.664063 -9.972657,-20.039063 z m 0,0"
           id="path119"
           style="fill:#3eb1c8;fill-opacity:1" />
      </g>
    </g>
  </g>
</svg>
